<svg width="136" height="26" fill="none" xmlns="http://www.w3.org/2000/svg"><path d="M79.043 25.699c-2.395-.184-4.834-1.312-4.834-1.312l1.082-2.831s1.242.598 1.749.712c.922.208 1.819.302 2.739.185.783-.092 1.383-.53 1.567-1.312.206-.805-.185-1.404-.877-1.819-.942-.598-2.047-.852-3.06-1.288-2.603-1.175-3.685-3.385-2.855-5.848.507-1.474 1.589-2.326 2.993-2.786 2.37-.76 4.672-.46 6.953.438.115.045.298.16.298.16l-1.15 2.625s-2.67-.622-3.523-.552c-.851.068-1.473.506-1.657 1.358-.161.829.299 1.404.966 1.794.575.323 1.198.53 1.797.784.737.323 1.495.575 2.187.99 3.037 1.842 2.922 6.216-.232 7.92-1.265.69-2.67.897-4.143.782zm-24.749-.023c-4.029.046-6.951-2.763-7.228-6.79-.092-1.566-.138-3.133.298-4.652 1.429-5.019 6.287-6.286 10.27-4.627.16.068.666.3.666.3l-1.335 2.807s-.598-.137-1.174-.275c-2.21-.598-4.075.782-4.489 3.407-.185 1.128-.185 2.28.115 3.43.69 2.602 2.509 3.615 5.065 2.717.23-.092.553-.092.553-.092l1.082 3.04s-2.049.781-3.821.735h-.002z" fill="#009A5F"/><path d="M28.787 2.125c-.898-.069-4.098-.023-4.098-.023v5.896c0 1.403 0 1.403-1.405 1.218-3.637-.506-6.791 1.336-7.895 4.675-.737 2.187-.76 4.443-.139 6.676.76 2.67 2.486 4.351 5.203 4.927 2.418.53 4.788.253 7.16-.392.852-.23 1.22-.622 1.197-1.589-.093-3.43-.023-18.486-.023-21.387v-.001zM23.79 22.5c-2.441.368-4.052-.599-4.628-2.994-.414-1.657-.414-3.338.277-4.95.805-1.91 2.762-2.807 4.742-2.209.552.16.552.529.552.967v4.143c0 1.313-.022 2.602.023 3.914-.023.69-.206 1.014-.966 1.129zm-9.715-3.431c-.022-1.565-.022-3.154-.022-4.72a6.16 6.16 0 0 0-.093-.92c-.275-2.257-1.45-3.615-3.66-4.167-2.256-.576-4.489-.345-6.699.23-1.013.253-1.657.69-1.657.69l1.104 2.51s.276-.046.483-.115c1.589-.53 3.246-.945 4.951-.53 1.127.277 1.657.99 1.749 2.119.069.667-.115.92-.852.944-1.842.091-3.66.322-5.386 1.013-2.302.919-3.294 2.415-3.2 4.763.068 2.119 1.196 3.638 3.453 4.328 3.061.945 6.123.645 9.14-.298.506-.162.713-.46.69-1.014-.023-1.612 0-3.222 0-4.834v.001zm-3.844 3.776c-1.589.207-4.42 0-5.18-.967-.875-1.105-.46-2.856.876-3.5 1.197-.575 3.29-.713 4.304-.668 0 .645.069 3.431 0 5.135z" fill="#000"/><path d="M72.459 19.069c-.023-1.566-.023-3.154-.023-4.72 0-.298-.046-.621-.092-.92-.277-2.257-1.45-3.616-3.66-4.167-2.257-.576-4.49-.346-6.7.23a5.656 5.656 0 0 0-1.657.69l1.104 2.51s.277-.046.484-.115c1.589-.53 3.246-.945 4.95-.53 1.128.277 1.657.99 1.75 2.119.068.667-.115.92-.852.944-1.842.091-3.661.321-5.388 1.013-2.3.92-3.291 2.416-3.2 4.765.07 2.118 1.198 3.637 3.453 4.327 3.063.945 6.125.645 9.14-.298.507-.162.713-.46.691-1.014V19.07zm-3.844 3.776c-1.612.207-4.421 0-5.18-.967-.877-1.105-.462-2.856.874-3.5 1.198-.575 3.292-.713 4.306-.668 0 .645.068 3.431 0 5.135z" fill="#009A5F"/><path d="M41.495 9.4c-.024.069-.047.137-.069.23-.715 2.534-1.682 5.572-2.418 8.104-.346 1.174-.69 2.372-1.104 3.844-.899-3.06-2.717-9.369-3.593-12.178H29.94c.023.115.068.254.114.392 1.566 4.236 5.757 15.609 5.757 15.609h4.259s4.236-11.326 5.87-15.679c.046-.115.068-.207.092-.298h-4.535V9.4h-.001z" fill="#000"/><path d="M100.04 13.704c-.045-1.818-.967-3.199-2.648-4.006-1.864-.873-3.797-.851-5.71-.252-.828.252-.896 0-.873-.691.022-1.22-.093-5.802-.047-6.722H86.71v.137c.023 7.207.023 15.887 0 23.09 0 .117 0 .232.023.324h4.098c.023-.092.023-.184.023-.322a275.852 275.852 0 0 1 0-6.17v-5.41c0-.37-.068-.761.322-1.038 1.727-1.265 4.582-.183 4.834 1.934.302 2.624.139 10.567.302 10.981h3.798c.023-.092.023-.205.023-.322-.093-3.567-.023-7.943-.093-11.534v.001z" fill="#009A5F"/><path d="M133.72 13.06h-6.677l-1.725-3.499H136l-2.28 3.5zm-3.799 5.664h-.759l-1.197-3.476h4.236l-2.28 3.476z" fill="#000"/><path d="M121.45 9.538l6.677 15.885h4.789L121.45.396l-11.349 25.071 4.742-.023 6.607-15.906z" fill="#009A5F"/><path d="M122.922 13.06h-13.605l-2.579-3.499h14.711l1.473 3.5zm2.394 5.664h-12.131l-2.556-3.476h13.192l1.495 3.476z" fill="#000"/></svg>