<svg width="62" height="45" fill="none" xmlns="http://www.w3.org/2000/svg"><path fill-rule="evenodd" clip-rule="evenodd" d="M8.134.155c.843 0 1.532.129 2.067.387.535.258.943.602 1.223 1.032.281.43.44.925.476 1.484.037.56-.013 1.14-.15 1.742l-.152.671c-.114.499-.248.92-.404 1.265-.155.344-.34.645-.553.903-.402.482-.943.895-1.624 1.239.553.292.912.722 1.075 1.29.164.568.134 1.342-.089 2.323l-.234 1.032c-.367 1.618-1.04 2.856-2.018 3.717-.978.86-2.328 1.29-4.048 1.29H.115L4.288.155h3.846zm-2.292 9.858H4.681l-1.336 5.885H4.48c.534 0 .968-.078 1.305-.233.336-.154.613-.37.83-.645.218-.275.386-.602.507-.98.12-.38.231-.792.333-1.24.105-.464.171-.868.198-1.212.026-.345-.01-.637-.11-.878a1.076 1.076 0 0 0-.577-.529c-.267-.112-.642-.168-1.124-.168zm.517-7.38h1.084c.877 0 1.437.206 1.678.619.242.413.27 1.032.082 1.858-.192.843-.488 1.484-.889 1.923-.4.438-1.04.658-1.917.658H5.21l1.149-5.059zM20.693.282A4.127 4.127 0 0 0 19.171 0c-.534 0-1.084.095-1.652.284-.568.19-1.1.464-1.594.826a5.768 5.768 0 0 0-1.355 1.42 5.675 5.675 0 0 0-.832 1.96l-2.204 9.705c-.176.774-.197 1.436-.064 1.987.133.55.373 1.006.721 1.368.327.378.732.662 1.214.851.481.19.989.284 1.522.284.534 0 1.084-.094 1.652-.284a5.895 5.895 0 0 0 1.626-.851 5.71 5.71 0 0 0 1.317-1.368c.383-.55.663-1.213.838-1.987l2.204-9.704c.168-.74.188-1.394.058-1.962-.129-.568-.357-1.04-.684-1.42a3.464 3.464 0 0 0-1.245-.825zm-3.475 2.801a2.285 2.285 0 0 1 1.354-.451c.482 0 .865.15 1.15.451.284.301.354.77.21 1.407l-2.205 9.704c-.144.636-.427 1.105-.848 1.406a2.285 2.285 0 0 1-1.354.452c-.482 0-.865-.15-1.15-.452-.284-.3-.354-.77-.21-1.406L16.37 4.49c.144-.637.427-1.106.848-1.407z" fill="#1E1E1C"/><path d="M29.547 18.53l.598-2.632H24.93L28.507.155h-2.633L21.701 18.53h7.846zm9.145 0l.598-2.632h-5.213l1.225-5.394h4.542l.563-2.478h-4.542l1.224-5.394h5.214l.562-2.477H35.02L30.847 18.53h7.845zm6.873 0l3.61-15.898h3.046l.562-2.477H44.06l-.563 2.477h3.046l-3.61 15.898h2.632z" fill="#1E1E1C"/><path fill-rule="evenodd" clip-rule="evenodd" d="M59.45.284A4.127 4.127 0 0 0 57.925 0a5.21 5.21 0 0 0-1.651.284c-.568.19-1.1.464-1.594.826a5.768 5.768 0 0 0-1.355 1.42 5.677 5.677 0 0 0-.833 1.96l-2.203 9.705c-.176.774-.197 1.436-.064 1.987.133.55.373 1.006.721 1.368a3.05 3.05 0 0 0 1.213.851c.482.19.99.284 1.523.284.534 0 1.084-.094 1.652-.284a5.895 5.895 0 0 0 1.626-.851 5.709 5.709 0 0 0 1.317-1.368c.383-.55.662-1.213.838-1.987L61.32 4.49c.168-.74.187-1.394.058-1.962-.129-.568-.357-1.04-.684-1.42a3.463 3.463 0 0 0-1.245-.825zm-3.476 2.8a2.285 2.285 0 0 1 1.354-.451c.482 0 .865.15 1.15.451.284.301.353.77.209 1.407l-2.204 9.704c-.144.636-.427 1.105-.848 1.406a2.285 2.285 0 0 1-1.354.452c-.482 0-.865-.15-1.15-.452-.284-.3-.354-.77-.21-1.406l2.204-9.704c.145-.637.428-1.106.849-1.407z" fill="#1E1E1C"/><path fill-rule="evenodd" clip-rule="evenodd" d="M11.941 31.578c.817-3.596-.323-5.394-3.42-5.394H4.288L.115 44.559h2.633l1.781-7.845h1.575l.67 7.846H9.56l-.934-8.388c.949-.465 1.676-1.076 2.184-1.833.507-.757.884-1.677 1.13-2.761zm-5.584-2.916h1.368c.912 0 1.476.24 1.694.722.096.258.13.564.101.917a8.846 8.846 0 0 1-.2 1.226 9.615 9.615 0 0 1-.356 1.225c-.132.353-.294.65-.487.89-.21.242-.466.427-.77.556-.305.129-.69.193-1.154.193H5.056l1.3-5.73z" fill="#0D73C1"/><path d="M20.162 25.204l3.932-2.924-1.412-1.714-3.73 3.327 1.21 1.31z" fill="#0D73C1"/><path fill-rule="evenodd" clip-rule="evenodd" d="M20.728 44.56l.07-18.376h-2.194l-8.277 18.375h2.633l1.67-3.948h3.588l-.122 3.949h2.632zM18.46 31.474h.051l-.221 6.659h-2.633l2.803-6.659zm13.926-5.006c-.508-.19-1.123-.284-1.846-.284h-3.948L22.42 44.559h2.632l1.63-7.174h1.342c.98 0 1.81-.168 2.488-.503a5.349 5.349 0 0 0 1.765-1.407 5.696 5.696 0 0 0 .97-1.6c.224-.568.43-1.265.617-2.09.25-1.102.362-1.975.336-2.62-.025-.645-.207-1.209-.545-1.69-.338-.482-.76-.818-1.268-1.007zm-3.726 2.194h1.368c.517 0 .895.077 1.135.232.24.155.396.379.467.671.071.293.071.632 0 1.02-.07.387-.154.795-.252 1.225-.106.465-.214.887-.326 1.265a2.938 2.938 0 0 1-.462.955c-.2.275-.464.49-.792.645-.327.155-.758.232-1.291.232h-1.265l1.419-6.245z" fill="#0D73C1"/><path d="M35.432 44.56l4.173-18.376h-2.632L32.8 44.559h2.632z" fill="#0D73C1"/><path fill-rule="evenodd" clip-rule="evenodd" d="M49.02 27.423c-.595-.826-1.65-1.239-3.164-1.239H41.96l-4.173 18.375h3.665c1.566 0 2.858-.408 3.879-1.225 1.02-.818 1.725-2.087 2.116-3.807l1.951-8.594c.344-1.514.218-2.684-.377-3.51zm-4.99 1.239h1.212c.774 0 1.263.198 1.465.593.203.396.222.955.058 1.678l-2.01 8.852c-.18.792-.467 1.372-.86 1.742-.394.37-.96.555-1.7.555H40.98l3.048-13.42zm14.337-2.349a4.126 4.126 0 0 0-1.523-.284 5.21 5.21 0 0 0-1.651.284c-.568.19-1.1.465-1.594.826a5.77 5.77 0 0 0-1.355 1.42 5.677 5.677 0 0 0-.833 1.96l-2.203 9.705c-.176.774-.197 1.436-.064 1.987.133.55.373 1.007.721 1.368.327.378.732.662 1.213.852.482.189.99.283 1.523.283a5.21 5.21 0 0 0 1.652-.283 5.893 5.893 0 0 0 1.626-.852 5.711 5.711 0 0 0 1.317-1.368c.383-.55.662-1.213.838-1.987l2.204-9.704c.168-.74.187-1.394.058-1.962-.129-.567-.357-1.04-.684-1.42a3.463 3.463 0 0 0-1.245-.825zm-3.475 2.8a2.285 2.285 0 0 1 1.354-.451c.482 0 .865.15 1.15.451.284.302.353.77.209 1.407L55.4 40.224c-.144.637-.427 1.105-.848 1.406a2.285 2.285 0 0 1-1.354.452c-.482 0-.865-.15-1.15-.452-.284-.3-.354-.77-.21-1.406l2.204-9.704c.145-.637.428-1.105.849-1.407z" fill="#0D73C1"/></svg>