<svg width="102" height="58" fill="none" xmlns="http://www.w3.org/2000/svg"><g clip-path="url(#clip0_267_692)"><path d="M11.713.067h4.053v30.28h-4.053V.066zM2.018 57.34c2.32 0 4.652.025 6.972-.013.73-.014 1.472-.118 2.19-.274 2.162-.47 3.478-2.087 3.7-4.46.17-1.878-.912-3.52-2.854-4.356-.078-.039-.156-.09-.26-.143.104-.078.156-.13.208-.156 1.55-.978 2.306-2.387 1.994-4.2-.326-1.851-1.473-3.064-3.336-3.481-.652-.143-1.33-.248-1.994-.248-2.02-.026-4.04-.013-6.06-.013h-.781v17.317c.091 0 .156.027.221.027zm2.085-8.125c2.111.105 4.183.118 6.242.353 1.433.17 2.176 1.395 2.111 2.973-.065 1.421-1.003 2.569-2.45 2.66-1.941.117-3.883.026-5.89.026-.013-1.943-.013-3.886-.013-6.012zm-.013-7.067c.052-.04.092-.091.13-.091 1.864.039 3.727.026 5.578.156 1.172.091 1.89 1.043 1.967 2.308.079 1.226-.56 2.204-1.72 2.517a6.706 6.706 0 0 1-1.602.234c-1.42.027-2.854.014-4.353.014v-5.138zm73.403-11.763c.912 0 1.798-.039 2.684.014.587.026.77-.144.77-.757-.027-9.623-.014-19.234-.014-28.858V.067h-3.427c-.013 10.132-.013 20.173-.013 30.319zm-58.3 13.732c-.886 1.747-1.108 3.612-.951 5.568.365 4.394 3.297 7.759 7.831 7.968 3.193.143 6.555-1.344 7.95-4.851.729-1.84.911-3.717.677-5.686-.535-4.473-3.727-7.394-8.9-7.459-2.62.052-5.095 1.474-6.607 4.46zm1.446 6.037c-.156-1.421-.195-2.855.261-4.25.9-2.778 2.971-4.29 5.838-4.252 2.645.052 4.652 1.67 5.382 4.447.586 2.217.573 4.42-.522 6.52-1.068 2.035-2.775 3.025-4.704 3.065-4.065.039-5.968-2.908-6.255-5.53zM101.3 47.86c-.182-4.916-3.635-8.241-8.522-8.176-2.854.04-5.095 1.252-6.632 3.69-1.134 1.787-1.499 3.756-1.408 5.856.195 4.524 3.062 8.136 7.728 8.424 3.179.195 6.762-1.265 8.17-4.995.482-1.278.756-2.582.677-4.095-.013-.143 0-.43-.013-.704zM97 54.158c-2.697 2.62-7.284 1.878-9.017-1.513-1.42-2.778-1.356-5.672.234-8.398 1.2-2.06 3.167-2.751 5.447-2.556 2.059.17 3.57 1.24 4.496 3.104a7.91 7.91 0 0 1 .808 3.899c.078 2.19-.495 4.03-1.968 5.464zM84.243 30.333h3.323V.054h-3.323v30.28zM53.138 57.301h12.914v-1.996H55.458v-5.933h9.525v-2.047h-9.512v-5.32h10.164v-1.983H53.138v17.279zM25.54.066h-3.153v30.28h3.153V.066zm37.568 30.28h3.101V.066h-3.101v30.28zM69.701.066h-2.385v30.28H69.7V.066zm-.822 41.99H74.6v15.23h2.306v-15.27h5.682V40.01H68.867c.012.718.012 1.33.012 2.048zm-35.326-11.71h1.994V.066h-1.994v30.28zm9.643-.014V.08H41.24v30.253h1.955zm-24.081.013h1.994V.067h-1.994v30.28zM5.55 30.32h1.993V.067H5.55V30.32zM29.422.015c-.651-.078-.834.143-.834.822.026 9.584.013 19.155.013 28.74 0 .156-.039.326.013.456.065.144.222.34.34.34.546.039 1.107.012 1.68.012V.029c-.443 0-.834.04-1.212-.013zM73.65.08h-1.942v30.266h1.942V.08zM49.399 57.3v-1.969h-.743c-2.346 0-4.691-.013-7.024.014-.586.013-.769-.131-.769-.757.026-4.603.013-9.206.013-13.81 0-.247-.026-.495-.039-.756h-2.202v17.279h10.763zm25.07-26.954h1.07V.067h-1.07v30.28zm-14.437 0h1.081V.067h-1.081v30.28zM90.563.093h-1.082v30.253h1.082V.093zm3.062 30.24h1.095v-.821V.902c0-.978-.013-.978-1.095-.796v30.227zM49.255.067h-1.082v30.28h1.082V.066zm-46.69 30.28h1.082V.066H2.566v30.28zm14.439-.014h1.042V.054h-1.042v30.28zm29.332-.013h1.082V.067h-1.082V30.32zm-36.89.026h1.082V.067H9.445v30.28zm-9.109-.013h1.004V.054H.337v30.28zM55.275.08H54.26v30.28h1.016V.08zm-3.127 30.253h1.03V.067h-1.03v30.266zM51.106.08h-1.03v30.266h1.03V.08zm46.52 0h-1.03v30.28h1.03V.08zm.795 30.253h1.016V.054h-1.016v30.28zm-59.265 0h1.004V.054h-1.004v30.28zm-7.44 0h1.016V.054h-1.016v30.28z" fill="#000"/></g><defs><clipPath id="clip0_267_692"><path fill="#fff" transform="translate(.337)" d="M0 0H101.325V58H0z"/></clipPath></defs></svg>