<svg width="63" height="48" fill="none" xmlns="http://www.w3.org/2000/svg"><path d="M12.014 47.418v-3.16a1.836 1.836 0 0 0-1.946-1.998 2.073 2.073 0 0 0-1.79.894 1.837 1.837 0 0 0-1.683-.894 1.79 1.79 0 0 0-1.529.736v-.63h-.999v5.05h1v-2.893a1.18 1.18 0 0 1 1.263-1.317c.736 0 1.157.474 1.157 1.315v2.895h1v-2.893a1.18 1.18 0 0 1 1.262-1.317c.738 0 1.16.474 1.16 1.315v2.895h1.105v.002zm16.422-5.002h-1.842v-1.525h-1.001v1.525H24.54v.894h1.052v2.37c0 1.156.42 1.841 1.683 1.841.48-.008.95-.135 1.37-.368l-.316-.893a1.732 1.732 0 0 1-.948.262.734.734 0 0 1-.788-.84v-2.423h1.84v-.841l.002-.002zm9.367-.158a1.579 1.579 0 0 0-1.367.736v-.63h-1v5.052h.999v-2.84c0-.842.42-1.37 1.104-1.37a3 3 0 0 1 .685.106l.316-.947a3.545 3.545 0 0 0-.737-.105v-.002zm-14.157.526a3.61 3.61 0 0 0-2.053-.526c-1.263 0-2.052.579-2.052 1.58 0 .84.578 1.316 1.683 1.473l.526.053c.58.105.948.315.948.578 0 .368-.421.631-1.21.631a2.774 2.774 0 0 1-1.684-.526l-.526.79c.638.423 1.39.644 2.156.632 1.474 0 2.264-.684 2.264-1.63 0-.948-.63-1.316-1.736-1.474l-.526-.053c-.474-.052-.894-.21-.894-.525 0-.318.42-.633.999-.633a3.81 3.81 0 0 1 1.577.42l.526-.788.002-.002zm15.316 2.107a2.482 2.482 0 0 0 2.63 2.63 2.625 2.625 0 0 0 1.79-.578l-.526-.789c-.371.303-.835.47-1.314.474a1.69 1.69 0 0 1 0-3.369c.478.004.943.17 1.314.473l.526-.788a2.633 2.633 0 0 0-1.788-.579 2.358 2.358 0 0 0-2.632 2.524v.002zm-7.105-2.633c-1.474 0-2.475 1.052-2.475 2.633a2.473 2.473 0 0 0 2.58 2.63 3.205 3.205 0 0 0 2.05-.683l-.525-.736a2.515 2.515 0 0 1-1.473.526 1.48 1.48 0 0 1-1.526-1.315h3.737v-.422c0-1.58-.947-2.633-2.368-2.633zm0 .947a1.256 1.256 0 0 1 1.314 1.265h-2.736a1.353 1.353 0 0 1 1.42-1.264l.002-.001zM18.225 44.89v-2.527h-.999v.63a1.938 1.938 0 0 0-1.633-.736 2.633 2.633 0 0 0 0 5.263 1.937 1.937 0 0 0 1.631-.736v.631h1v-2.525h.001zm-4.106 0a1.578 1.578 0 1 1 1.579 1.682 1.548 1.548 0 0 1-1.578-1.682h-.001zm38.895-2.633a1.578 1.578 0 0 0-1.369.736v-.63h-.998v5.052h.998v-2.84c0-.842.421-1.37 1.105-1.37a3 3 0 0 1 .683.106l.317-.947a3.545 3.545 0 0 0-.736-.105v-.002zm8.104 4.422a.315.315 0 0 1 .21.053c.053 0 .106.052.158.105.053.053.106.105.106.158 0 .052.052.105.052.21a.316.316 0 0 1-.052.21c-.053.053-.053.105-.106.158-.052.053-.105.105-.157.105-.053 0-.105.053-.21.053a.316.316 0 0 1-.21-.053c-.053-.052-.106-.052-.159-.105-.052-.053-.105-.105-.105-.158 0-.052-.052-.105-.052-.21a.315.315 0 0 1 .052-.21c.053-.053.053-.105.105-.158.053-.053.105-.105.158-.105.053 0 .158-.053.21-.053zm0 .894a.193.193 0 0 0 .158-.053.115.115 0 0 0 .105-.105l.105-.105c0-.053.053-.105.053-.158a.195.195 0 0 0-.053-.157.116.116 0 0 0-.105-.105l-.105-.106c-.053 0-.105-.052-.158-.052a.195.195 0 0 0-.157.052.116.116 0 0 0-.105.106l-.106.105c0 .052-.052.105-.052.157a.195.195 0 0 0 .052.158.115.115 0 0 0 .105.105l.106.105a.194.194 0 0 0 .157.053zm.053-.578a.195.195 0 0 1 .158.052c.052.053.052.053.052.105 0 .053 0 .053-.052.105a.184.184 0 0 1-.105.053l.157.158h-.157l-.158-.158h-.053v.158h-.105v-.473h.263zM49.118 44.89v-2.527h-.999v.63a1.936 1.936 0 0 0-1.631-.736 2.633 2.633 0 0 0 0 5.263c.63.035 1.24-.238 1.63-.736v.631h1v-2.525zm-4.052 0a1.578 1.578 0 1 1 1.58 1.682c-1 .053-1.578-.736-1.578-1.682h-.002zm14.263 0v-4.527h-.999v2.632a1.938 1.938 0 0 0-1.632-.736 2.633 2.633 0 0 0 0 5.261c.631.035 1.241-.238 1.63-.736v.631h1.001v-2.525zm-4.105 0a1.578 1.578 0 1 1 1.578 1.682 1.548 1.548 0 0 1-1.578-1.682z" fill="#000"/><path d="M22.49 4.048h18.262v29.79H22.488V4.047z" fill="#FF5F00"/><path d="M24.381 18.944a18.999 18.999 0 0 1 7.21-14.894A18.945 18.945 0 1 0 19.91 37.891a18.826 18.826 0 0 0 11.683-4.052 18.998 18.998 0 0 1-7.21-14.895z" fill="#EB001B"/><path d="M60.435 30.821v-.754h.263v-.122h-.631v.122h.263v.754h.105zm1.262 0v-.876h-.21l-.211.624-.21-.626h-.21v.876h.157v-.689l.21.565h.158l.21-.565v.69h.106v.001zm.58-11.878A18.946 18.946 0 0 1 31.644 33.84a18.988 18.988 0 0 0 0-29.79 18.946 18.946 0 0 1 30.633 14.895z" fill="#F79E1B"/></svg>