<svg fill="none" height="31" width="148" xmlns="http://www.w3.org/2000/svg"><g fill="#ef1515"><path d="m81.685 16c.511-.713.847-1.413 1.183-2.098 1.418-2.914 2.85-5.829 4.266-8.758.278-.568.556-1.151.643-1.763.073-.525.278-.656.79-.627 1.022.044 2.045.015 3.067.015.205 0 .453-.073.482.277.03.335-.19.335-.409.364l-.657.087c-.716.117-1.154.481-1.198 1.239-.132 1.938-.073 3.876-.015 5.814.073 2.04.146 4.066.205 6.106.044 1.589.131 1.72 1.738 1.982.278.044.395.131.366.408-.03.248-.161.32-.395.306a34.209 34.209 0 0 0 -5.464 0c-.292.03-.394-.146-.424-.379-.029-.262.161-.32.38-.335.22-.014.439-.029.658-.058.657-.087.993-.423.993-1.108v-11.235c-.424.437-.599.816-.774 1.195-1.768 3.934-3.945 7.665-5.669 11.629-.088.204-.131.437-.409.451-.204.015-.263-.174-.321-.335-1.388-3.497-3.17-6.805-4.69-10.23-.395-.874-.775-1.748-1.3-2.608-.103 2.07-.205 4.124-.293 6.193-.058 1.326-.087 2.667-.117 4.008 0 .335.059.67.088 1.005.044.758.497 1.064 1.198 1.079.117 0 .248.014.365.014.278 0 .57 0 .54.394-.028.35-.306.32-.554.291-.965-.146-1.943-.073-2.922-.073-.555 0-1.11.044-1.68.088-.249.014-.439-.015-.483-.306-.043-.292.117-.35.366-.408 1.563-.321 1.621-.321 1.782-1.895.395-3.905.643-7.84.701-11.76.015-.976-.233-1.253-1.168-1.472-.19-.043-.38-.072-.57-.102-.205-.029-.395-.072-.365-.35.029-.247.175-.305.409-.305 1.168.014 2.337.014 3.506 0 .234 0 .35.072.35.32.044 1.224.585 2.303 1.111 3.366 1.505 3.192 3.083 6.325 4.69 9.575zm66.227-10.768c0 2.827-2.279 5.07-5.113 5.056-2.82-.014-5.128-2.346-5.099-5.1.044-2.813 2.338-5.071 5.143-5.057 2.849 0 5.069 2.259 5.069 5.1zm-1.373-1.676c-.599-.175-.906.043-1.125.64-.307.788-.745 1.531-1.169 2.39-.438-.888-.876-1.602-1.139-2.375-.219-.64-.512-.83-1.14-.64.541.466.497 2.9-.029 3.774.672.116.643.116.599-.481a7.778 7.778 0 0 1 .161-2.288c.482 1.02.92 1.923 1.373 2.885.497-.962.935-1.821 1.388-2.696.073.904.424 1.778-.088 2.594h1.154c-.569-.67-.555-3.264.015-3.803zm-7.553 2.2c.745.146 1.344.117 1.928-.087.512-.175.862-.525.818-1.079-.043-.597-.409-1.005-1.022-1.049-.57-.044-1.155-.014-1.724-.014.54.247.423.714.423 1.136v.51c.015.16-.043.365.205.38.321.014.263-.22.263-.394 0-.263-.015-.54 0-.802.014-.218-.146-.539.204-.612.322-.058.629.015.848.306.394.525.19 1.297-.453 1.487-.409.116-.877.13-1.49.218zm1.388 1.661c-.614-.189-.468-.684-.468-1.107 0-.175.015-.35-.234-.364-.263-.015-.248.174-.248.35.015.422-.029.83-.57 1.107.599.014 1.052.014 1.52.014zm-27.38 7.301c0 .918.015 1.85 0 2.769-.014.714.307 1.093 1.023 1.137.263.014.613-.015.57.379-.044.422-.366.335-.672.306a22.519 22.519 0 0 0 -3.711 0c-.263.014-.57.116-.614-.277-.044-.408.263-.38.526-.408.672-.073.964-.467.964-1.137 0-1.632.029-3.25 0-4.882-.014-.918-.321-1.748-1.285-2.098-1.023-.364-2.017-.292-2.893.408-.468.379-.599.918-.599 1.5v4.883c0 .976.117 1.122 1.066 1.326.249.058.409.116.395.393-.029.292-.205.335-.453.32a20.405 20.405 0 0 0 -4.003 0c-.278.03-.424-.058-.453-.334-.029-.292.146-.336.394-.38.994-.174 1.111-.32 1.125-1.34.015-1.822-.014-3.643.015-5.465 0-.539-.146-.947-.599-1.224-.482-.291-.482-.539.073-.787a22.16 22.16 0 0 0 1.958-.947c.438-.233.482-.044.496.335.059 1.137.059 1.137 1.125.598.658-.32 1.33-.583 2.06-.685 1.958-.306 3.419.874 3.478 2.841.029.918 0 1.851 0 2.77h.014zm-112.863-2.9h5.319c.906 0 1.797-.102 2.674-.335 1.943-.524 2.995-2.171 2.79-4.357-.19-2.171-1.314-3.323-3.433-3.527-1.84-.174-1.855-.16-1.855 1.633 0 1.821-.015 3.643.014 5.464 0 .481-.073.685-.613.67-1.432-.029-1.432 0-1.447-1.442-.014-1.632 0-3.25-.073-4.882-.044-1.064-.307-1.268-1.373-1.384-.102-.015-.19-.015-.292-.03-.234-.014-.453-.058-.453-.35-.015-.334.219-.378.482-.393 1.87-.174 3.74-.16 5.61-.116 1.198.029 2.382.19 3.463.743 1.549.801 2.294 2.142 2.367 3.833.058 1.573-.512 2.856-1.929 3.745-2.338 1.457-4.923 1.53-7.539 1.384-1.27-.073-2.483-.306-3.71-.656z"/><path d="m92.102 14.412c.058-3.104 2.41-5.435 5.435-5.348 2.922.073 5.069 2.317 5.011 5.232-.058 3.206-2.294 5.45-5.377 5.362-3.01-.102-5.113-2.273-5.07-5.246zm8.254.204c-.014-1.442-.277-2.798-1.3-3.905-1.14-1.239-2.907-1.108-3.9.248-.483.67-.717 1.428-.804 2.23-.19 1.792 0 3.511 1.33 4.88 1.168 1.196 3.053.977 3.944-.45.555-.919.73-1.939.73-3.003zm-66.84-.364c0 1.02-.015 2.04 0 3.06.014 1.064.19 1.239 1.27 1.34.249.03.658-.145.629.35-.03.51-.424.336-.716.321-1.388-.087-2.761-.117-4.15 0-.248.015-.51.087-.555-.277-.043-.335.176-.379.453-.422.98-.16 1.14-.292 1.155-1.239.029-2.128.014-4.27.014-6.397 0-.335-.146-.496-.482-.481-.19.014-.395.014-.584 0-.161 0-.366.029-.395-.204-.03-.19.044-.35.234-.394 1.125-.277 1.227-1.093 1.285-2.098.103-1.734.497-3.425 1.724-4.765 1.242-1.37 2.806-1.851 4.617-1.443.482.117.92.335 1.198.772.278.452.249.904-.16 1.239-.41.335-.848.32-1.257-.03-.219-.189-.394-.422-.628-.611-1.154-.918-2.513-.569-3.068.816-.366.932-.497 1.923-.54 2.914-.03.729 0 1.458-.03 2.186-.015.423.16.54.555.54.76-.015 1.505 0 2.265 0 .307 0 .599-.03.57.422-.015.393-.117.656-.585.641-.73-.014-1.46.03-2.191-.014-.497-.03-.643.145-.629.612.015 1.078 0 2.127 0 3.162zm96.499 2.594a52.688 52.688 0 0 0 2.542-5.917c.161-.437 0-.7-.482-.757-.219-.03-.424-.088-.643-.117-.204-.044-.307-.19-.277-.364.029-.204.131-.335.394-.32 1.213.101 2.425.116 3.638.014.219-.015.394 0 .438.262.029.233-.087.379-.307.408-1.022.131-1.446.918-1.84 1.69-1.812 3.512-3.463 7.097-5.129 10.682-.336.729-.657 1.457-1.037 2.157-.394.714-.979.976-1.695.845-.599-.102-.92-.452-.905-1.05.014-.582.35-1.063.935-1.005 1.125.117 1.49-.626 1.972-1.37 1.125-1.748 1.373-3.468.438-5.42-.774-1.618-1.3-3.338-1.884-5.028-.278-.787-.702-1.384-1.593-1.472-.263-.029-.424-.131-.394-.408.029-.291.204-.306.467-.291 1.315.102 2.63.102 3.93 0 .234-.015.453-.044.482.277.03.276-.131.35-.38.422-.949.277-.964.292-.642 1.268.613 1.778 1.168 3.585 1.972 5.494zm-10.037-3.95c-.848 0-1.71.044-2.557-.014-.672-.044-.818.233-.804.845.073 2.376 1.476 4.095 3.623 4.416.994.145 1.812-.131 2.499-.86.175-.175.321-.525.628-.262.336.277.029.539-.131.743-1.213 1.588-2.849 2.113-4.778 1.72-1.87-.38-2.937-1.589-3.389-3.396-.76-3.002.818-6.033 3.55-6.849 1.841-.554 3.594.015 4.485 1.472.132.204.234.422.307.656.351 1.15.073 1.515-1.125 1.515-.745.03-1.52.015-2.308.015zm-1.082-.8v.028c.629-.029 1.257-.043 1.885-.116.804-.088 1.023-.51.672-1.239-.161-.32-.424-.524-.73-.67-1.271-.627-3.244.218-3.711 1.544-.146.394.014.452.35.452.512-.014 1.023 0 1.534 0z"/><path d="m41.8 12.897c-.848 0-1.71.029-2.558-.015-.628-.029-.803.204-.745.816.117 1.56.555 2.958 1.929 3.877 1.402.932 3.039.786 4.251-.38.146-.145.278-.378.54-.189.293.219.074.437-.043.627-.877 1.472-2.718 2.2-4.72 1.88-1.782-.277-3.17-1.56-3.535-3.425-.438-2.186-.058-4.211 1.651-5.8 1.797-1.661 4.632-1.632 6.107.03.205.232.38.495.497.8.511 1.312.19 1.779-1.198 1.779h-2.177zm1.066-.918c.409-.03.555-.263.54-.612-.03-.452-.175-.846-.584-1.123-1.257-.86-3.58-.029-4.018 1.429-.102.35.03.422.336.422.555-.014 3.024-.073 3.726-.116zm-25.085.898c-.847 0-1.71.03-2.557-.014-.628-.03-.803.204-.745.816.117 1.559.555 2.958 1.929 3.876 1.402.933 3.038.787 4.251-.379.146-.146.278-.379.54-.19.293.22.074.438-.043.627-.877 1.472-2.718 2.2-4.72 1.88-1.782-.277-3.17-1.56-3.535-3.424-.438-2.186-.058-4.212 1.651-5.8 1.797-1.661 4.632-1.632 6.107.029.205.233.38.495.497.802.511 1.311.19 1.777-1.198 1.777h-2.178zm1.067-.918c.409-.029.555-.262.54-.612-.03-.452-.175-.845-.584-1.122-1.257-.86-3.58-.029-4.018 1.428-.102.35.03.423.336.423.555-.015 3.024-.073 3.726-.117zm27.232 2.701c.059-4.882 4.836-6.383 8.036-5.232.613.219.847 1.297.409 1.793-.366.408-.628.131-.906-.146-.701-.743-1.549-1.166-2.6-1.064-1.213.117-2.09.758-2.645 1.807-.906 1.72-.512 3.935.877 5.305 1.504 1.486 3.754 1.428 5.171-.132.147-.16.234-.407.512-.233.336.219.146.452.029.685-.935 1.734-3.36 2.609-5.479 1.982-2.177-.641-3.39-2.331-3.404-4.765zm-20.775-4.124c.876-.612 1.534-1.297 2.498-1.443.526-.087.979.073 1.286.51.248.38.16.802-.059 1.166-.234.408-.628.525-1.066.466-.205-.029-.395-.16-.585-.262-1.125-.583-1.914-.175-2.03 1.093-.059.583-.03 1.166-.03 1.749v3.497c0 1.064.205 1.268 1.257 1.34.102 0 .19.015.292.015.263 0 .409.102.394.394-.014.32-.233.335-.453.32-1.504-.13-3.01-.16-4.514 0-.248.03-.365-.087-.41-.306-.058-.291.118-.35.366-.408 1.052-.247 1.11-.335 1.11-1.413 0-1.778-.014-3.541 0-5.32 0-.538-.073-.99-.613-1.281-.468-.263-.497-.554.073-.802.672-.291 1.33-.597 1.972-.947.424-.233.526-.044.526.335-.014.364-.014.772-.014 1.297zm31.85 3.745c0-1.02-.015-2.04 0-3.06.014-.51-.147-.787-.717-.714-.204.029-.526.146-.599-.219-.087-.379.234-.422.483-.495.92-.277 1.519-.918 1.987-1.72.131-.218.233-.437.555-.35.307.088.204.336.219.54.014.145.014.291 0 .437-.088.583.16.787.745.743.701-.044 1.403 0 2.118-.015.337-.014.57.059.556.467-.015.379-.103.641-.585.626-.774-.029-1.563.015-2.337-.029-.395 0-.556.16-.556.51 0 1.968-.16 3.935.088 5.888.19 1.486 1.286 1.981 2.674 1.326.19-.088.38-.306.555-.03.16.248-.059.409-.205.554-.89.89-2.849 1.18-3.959.569-.73-.408-1.008-1.093-1.023-1.895-.014-1.05 0-2.098 0-3.133zm-51.545 1.079c0 .466-.015.918 0 1.384.03 1.384.38 1.748 1.753 1.894.263.03.658-.102.643.365-.015.51-.424.364-.716.35a37.067 37.067 0 0 0 -5.245 0c-.248.014-.584.116-.643-.278-.073-.451.307-.393.585-.437 1.14-.175 1.388-.364 1.475-1.515.088-1.166.088-2.332.088-3.498 0-.393.073-.539.511-.51 1.549.073 1.549.059 1.549 1.589v.655z"/></g><path d="m92.686 28.766c0 .423-.015.83 0 1.239.015.393.03.655-.54.655-.6 0-.512-.306-.526-.684l-.044-4.59c0-.176-.117-.438.16-.482.249-.029.687-.145.73.059.147.67.38.145.527.072.993-.568 2.104-.189 2.527.86.278.685.263 1.37-.029 2.055-.453 1.108-1.402 1.37-2.805.816zm0-1.821c0 .961.497 1.486 1.198 1.238.585-.19.877-.918.687-1.705-.132-.51-.439-.874-1.023-.83-.555.058-.862.524-.862 1.297zm-13.003-.015c0 .51.015 1.02 0 1.53 0 .175.117.452-.102.51-.234.073-.614.16-.745-.058-.19-.292-.292-.233-.54-.088-1.184.641-2.207.102-2.31-1.253-.058-.67-.014-1.355-.014-2.04 0-.379-.058-.685.526-.67.526.014.57.218.555.64a20.5 20.5 0 0 0 .015 1.895c.015.466.234.816.76.773.482-.03.745-.35.76-.817.014-.684.043-1.355 0-2.04-.03-.524.306-.422.613-.437.322-.014.555 0 .512.452-.059.54-.03 1.078-.03 1.603zm19.621.32c-.263 0-.54-.014-.803 0-.16.015-.38-.102-.468.088-.102.218.059.422.22.568.51.452 1.11.408 1.724.263.189-.044.394-.132.438.189.029.219.146.452-.205.583-.789.32-2.133.146-2.703-.394-.584-.568-.76-1.617-.409-2.506a2.003 2.003 0 0 1 2.309-1.21c.862.204 1.402 1.093 1.315 2.084-.03.306-.161.35-.409.35-.322-.015-.672-.015-1.008-.015zm-.452-.714c.403-.003.803.035.803-.291.044-.423-.307-.7-.76-.714-.467 0-.862.291-.847.729 0 .311.4.28.804.276zm12.619.68c-.262 0-.54-.014-.803 0-.161.015-.38-.101-.468.088-.102.219.059.423.22.569.511.451 1.11.408 1.724.262.189-.044.394-.131.438.19.029.218.146.451-.205.582-.789.32-2.133.146-2.703-.393-.584-.569-.759-1.618-.409-2.507a2.004 2.004 0 0 1 2.309-1.21c.862.205 1.402 1.094 1.315 2.085-.03.306-.161.35-.409.35-.322-.015-.672-.015-1.009-.015zm-.452-.713c.403-.004.803.035.803-.292.044-.422-.307-.7-.76-.714-.467 0-.862.292-.847.729 0 .312.4.28.804.277zm-4.833.85v-1.166c0-.233.043-.437-.307-.525-.409-.102-.278-.685-.102-.7.569-.087.423-.51.496-.815.19-.787.862-1.312 1.651-1.21.219.03.57-.058.541.394-.029.335-.044.568-.482.48-.293-.058-.526.132-.614.409-.102.335-.263.757.395.684.292-.029.438.044.423.38-.014.305-.087.451-.409.407-.467-.073-.497.19-.482.554.015.7-.015 1.399.015 2.113.014.423.029.7-.57.7-.658 0-.541-.365-.541-.744-.014-.335-.014-.655-.014-.961zm13.938-3.41c0 .101.044.247.014.378-.058.423.044.656.541.569.307-.059.438.058.438.393s-.146.437-.438.394c-.497-.088-.555.175-.526.582.029.409.015.817 0 1.24-.015.422.117.742.614.684.394-.044.277.233.292.423.029.233.015.393-.292.451-.95.205-1.607-.247-1.651-1.194-.029-.452.014-.918-.015-1.385-.014-.335.219-.801-.453-.845-.234-.015-.131-.54-.117-.554.702-.16.526-1.486 1.593-1.137zm-34.334 3.074v-.874c.015-.262-.014-.48-.365-.466-.35.014-.321-.423-.263-.452.555-.262.497-1.035 1.096-1.239.38-.13.628-.145.555.365-.073.451.102.626.555.553.307-.043.424.073.439.394 0 .335-.147.437-.439.393-.467-.073-.599.131-.555.569.03.408.015.816.015 1.238 0 .408.087.758.599.7.365-.044.321.175.321.393 0 .219.03.394-.277.481-.95.248-1.637-.248-1.68-1.239-.015-.291 0-.553 0-.816zm-2.922-2.23c.263-.043.54.059.819.132.32.102.219.306.146.524-.059.19-.088.409-.38.234-.059-.03-.146-.044-.205-.059-.336-.058-.76-.174-.891.219-.16.452.336.495.614.641.233.131.496.204.7.379.658.525.585 1.56-.16 1.967-.657.35-1.358.292-2.06.088-.35-.102-.219-.335-.19-.569.059-.364.249-.276.468-.204.073.03.131.073.204.073.395.044.906.263 1.081-.262.161-.525-.409-.568-.73-.714-.804-.35-1.096-.758-.979-1.414.088-.612.687-1.02 1.563-1.034zm-8.62.89c-.044.655.102 1.428-.117 2.186-.277.976-1.548 1.559-2.469 1.15-.306-.145-.146-.364-.146-.553-.014-.233.088-.335.35-.335 1.17-.058 1.287-.19 1.301-1.355 0-.991.03-1.982-.014-2.973-.015-.466.204-.481.57-.496.394-.014.57.088.54.51-.044.583-.015 1.166-.015 1.866zm42.121 3.395c-1.111 0-1.826-.408-2.104-1.195-.321-.874-.248-1.72.424-2.433.555-.598 1.694-.817 2.44-.554.321.116.263.291.204.495-.073.233-.088.394-.467.32-.906-.189-1.461.161-1.637.904-.219.933.482 1.749 1.417 1.618.336-.044.672-.219.731.335.058.54-.351.423-.628.48-.176.03-.351.03-.38.03zm-13.178-3.716c.219-.175.379-.32.555-.437.204-.131.497-.233.686-.088.19.146.059.452.088.7.029.393-.263.233-.453.262-.54.117-.76.481-.789.991-.014.54-.029 1.064 0 1.603.029.452-.087.627-.584.627s-.541-.19-.526-.598c.029-.947-.015-1.894.029-2.841.015-.233-.263-.627.234-.7.35-.029.73-.029.76.481z" fill="#0b0b0b"/><path d="m146.539 3.556c-.57.539-.57 3.118 0 3.818h-1.154c.511-.816.16-1.705.087-2.594-.438.86-.891 1.734-1.388 2.696-.467-.977-.891-1.866-1.373-2.886a7.815 7.815 0 0 0 -.161 2.288c.044.598.073.598-.599.481.541-.86.57-3.308.029-3.774.629-.19.921 0 1.14.641.263.772.701 1.486 1.14 2.375.423-.86.876-1.603 1.168-2.39.205-.612.512-.816 1.111-.655zm-7.554 2.2c.629-.087 1.096-.102 1.52-.218.628-.175.847-.962.453-1.487-.219-.277-.526-.364-.848-.306-.35.073-.19.394-.204.612-.029.263 0 .54 0 .802 0 .19.044.422-.263.393-.263-.014-.205-.218-.205-.379-.014-.175 0-.335 0-.51 0-.422.103-.874-.423-1.136.569 0 1.154-.044 1.724.014.613.058.978.452 1.022 1.05.044.553-.307.903-.818 1.078a3.832 3.832 0 0 1 -1.958.087zm1.388 1.661h-1.534c.556-.276.585-.684.57-1.107 0-.175-.014-.35.249-.35.248 0 .233.19.233.365.015.408-.131.903.482 1.092z" fill="#fefdfd"/></svg>