<svg width="123" height="44" fill="none" xmlns="http://www.w3.org/2000/svg"><g clip-path="url(#clip0_267_659)"><path d="M51.058 40.921V16.078A8.277 8.277 0 0 1 59.335 7.8l7.335.011a8.265 8.265 0 0 1 8.248 8.265v5.288a8.277 8.277 0 0 1-8.277 8.276H56.276M76.968 7.798h3.182a3.397 3.397 0 0 1 3.396 3.396v18.559" stroke="#939598" stroke-width="1.53" stroke-miterlimit="10" stroke-linecap="round" stroke-linejoin="round"/><path d="M82.864 4.923L81.42 3.479a.917.917 0 0 1 0-1.296L82.863.74a.918.918 0 0 1 1.298 0l1.442 1.442a.917.917 0 0 1 0 1.296l-1.442 1.444a.917.917 0 0 1-1.297 0z" fill="#32BCAD"/><path d="M89.65 7.781h3.156a6.12 6.12 0 0 1 4.328 1.793l7.381 7.38a2.448 2.448 0 0 0 3.462 0l7.353-7.353a6.122 6.122 0 0 1 4.328-1.793h2.566M89.65 29.59h3.156a6.12 6.12 0 0 0 4.328-1.792l7.381-7.381a2.448 2.448 0 0 1 3.462 0l7.353 7.353a6.122 6.122 0 0 0 4.328 1.793h2.566" stroke="#939598" stroke-width="1.53" stroke-miterlimit="10" stroke-linecap="round" stroke-linejoin="round"/><path d="M32.245 34.306a5.894 5.894 0 0 1-4.193-1.736l-6.054-6.055a1.15 1.15 0 0 0-1.591 0l-6.077 6.077a5.893 5.893 0 0 1-4.193 1.736H8.944l7.668 7.668a6.133 6.133 0 0 0 8.672 0l7.69-7.69h-.729zM10.137 12.89c1.583 0 3.073.616 4.193 1.736l6.076 6.077c.438.438 1.152.44 1.591 0l6.055-6.055a5.893 5.893 0 0 1 4.193-1.736h.729l-7.69-7.69a6.132 6.132 0 0 0-8.672 0L8.944 12.89h1.193z" fill="#32BCAD"/><path d="M39.335 19.272l-4.647-4.647a.885.885 0 0 1-.33.067h-2.113a4.175 4.175 0 0 0-2.933 1.215l-6.055 6.055a2.897 2.897 0 0 1-2.055.85 2.898 2.898 0 0 1-2.054-.85l-6.078-6.077a4.175 4.175 0 0 0-2.933-1.215H7.539a.881.881 0 0 1-.312-.063L2.56 19.272a6.132 6.132 0 0 0 0 8.673l4.666 4.665a.883.883 0 0 1 .312-.063h2.598a4.176 4.176 0 0 0 2.933-1.215l6.077-6.077c1.098-1.097 3.013-1.097 4.11 0l6.055 6.055a4.176 4.176 0 0 0 2.933 1.215h2.113c.117 0 .228.026.33.067l4.647-4.647a6.133 6.133 0 0 0 0-8.673" fill="#32BCAD"/><path d="M57.366 38.81c-.343 0-.742.082-1.137.173v1.514c.273.1.586.148.885.148.76 0 1.12-.256 1.12-.925 0-.628-.296-.91-.868-.91zm-1.393 2.811v-2.994h.208l.022.13c.351-.082.837-.19 1.184-.19.282 0 .551.042.777.225.26.213.343.555.343.928 0 .391-.13.76-.486.964-.248.139-.582.195-.881.195-.308 0-.603-.048-.911-.139v.881h-.256zm4.44-2.82c-.76 0-1.098.238-1.098.907 0 .646.334.937 1.098.937.755 0 1.093-.235 1.093-.903 0-.646-.334-.941-1.093-.941zm.976 1.844c-.252.182-.59.234-.976.234-.395 0-.734-.056-.98-.234-.279-.195-.392-.517-.392-.92 0-.4.114-.724.391-.925.247-.177.586-.234.98-.234.391 0 .725.057.977.234.282.2.39.526.39.92 0 .404-.112.73-.39.925zm3.594.173l-.846-1.817h-.017l-.833 1.817h-.23l-.903-2.19h.282l.751 1.839h.017l.816-1.84h.234l.838 1.84h.017l.733-1.84h.273l-.902 2.191h-.23zm2.769-2.022c-.703 0-.941.313-.985.764h1.97c-.022-.499-.278-.764-.985-.764zm-.009 2.083c-.42 0-.694-.06-.91-.243-.257-.221-.344-.542-.344-.91 0-.352.118-.725.408-.938.243-.17.543-.221.855-.221.282 0 .608.03.876.212.317.213.378.586.378 1.011h-2.248c.009.451.157.85 1.007.85.403 0 .78-.065 1.132-.126v.23c-.364.066-.768.135-1.154.135zm1.998-.06v-2.192h.208l.022.13c.464-.116.68-.19 1.089-.19h.03v.243h-.06c-.343 0-.552.047-1.033.173v1.835h-.256zm2.836-2.023c-.703 0-.942.313-.985.764h1.97c-.022-.499-.278-.764-.985-.764zm-.009 2.083c-.421 0-.694-.06-.911-.243-.256-.221-.343-.542-.343-.91 0-.352.117-.725.408-.938.243-.17.542-.221.855-.221.282 0 .607.03.876.212.317.213.378.586.378 1.011h-2.248c.009.451.156.85 1.007.85.403 0 .78-.065 1.132-.126v.23c-.364.066-.768.135-1.154.135zm4.067-1.93a2.626 2.626 0 0 0-.885-.148c-.759 0-1.12.256-1.12.924 0 .633.296.91.868.91.343 0 .742-.082 1.137-.168v-1.519zm.048 1.87l-.022-.131c-.351.082-.837.191-1.184.191-.282 0-.551-.04-.777-.226-.26-.212-.343-.555-.343-.928 0-.39.13-.76.486-.96.248-.142.582-.199.885-.199.304 0 .6.053.907.14v-1.003h.256v3.115h-.208zm3.962-2.01c-.343 0-.742.083-1.137.174v1.51c.278.104.586.152.885.152.76 0 1.12-.256 1.12-.925 0-.628-.295-.91-.868-.91zm.655 1.875c-.247.138-.581.195-.88.195-.326 0-.651-.057-.981-.165l-.013.104h-.174v-3.115h.256v1.045c.352-.077.824-.181 1.158-.181.283 0 .552.042.777.225.26.213.343.555.343.928 0 .391-.13.76-.486.964zm.826.976v-.238c.125.012.243.021.325.021.317 0 .508-.091.686-.451l.082-.174-1.145-2.19h.295l.98 1.89h.018l.932-1.89h.291l-1.232 2.46c-.226.446-.469.594-.916.594-.1 0-.208-.009-.316-.022m5.992-2.091h-.85v.768h.854c.586 0 .808-.066.808-.386 0-.343-.304-.382-.812-.382zm-.156-1.245h-.694v.78h.698c.578 0 .807-.069.807-.394 0-.347-.29-.386-.81-.386zm1.32 2.286c-.314.2-.691.208-1.38.208h-1.298v-2.972h1.267c.594 0 .959.009 1.263.191.217.13.303.33.303.59 0 .312-.13.521-.469.66v.017c.382.087.63.282.63.703 0 .286-.104.473-.317.603m2.912-.712a9.208 9.208 0 0 0-.79-.034c-.446 0-.603.09-.603.295 0 .19.13.295.473.295.287 0 .63-.065.92-.13v-.425zm.13.92l-.017-.13c-.373.091-.807.191-1.189.191-.234 0-.486-.03-.664-.16-.164-.118-.243-.309-.243-.53 0-.248.11-.477.37-.594.23-.109.537-.117.82-.117.23 0 .537.012.793.03v-.04c0-.342-.225-.455-.841-.455-.24 0-.53.013-.808.04v-.443c.309-.026.656-.044.942-.044.382 0 .777.03 1.02.204.251.178.3.426.3.75v1.298h-.483zm3.343 0v-1.21c0-.4-.204-.542-.569-.542-.268 0-.607.069-.893.138v1.614h-.612v-2.19h.499l.022.138c.385-.1.815-.2 1.171-.2.269 0 .542.04.75.226.174.157.24.373.24.686v1.34h-.608zm2.336.06c-.282 0-.59-.038-.816-.229-.269-.217-.347-.56-.347-.929 0-.347.113-.724.447-.937.273-.178.611-.217.963-.217.252 0 .5.018.772.043v.47a7.859 7.859 0 0 0-.698-.04c-.582 0-.855.183-.855.686 0 .473.204.677.681.677.278 0 .603-.052.92-.113v.451c-.343.07-.716.139-1.067.139m2.874-1.853c-.582 0-.838.183-.838.681 0 .5.252.712.838.712.577 0 .828-.178.828-.677 0-.499-.247-.716-.828-.716zm1.05 1.623c-.269.182-.621.23-1.05.23-.438 0-.79-.052-1.054-.23-.304-.2-.413-.53-.413-.924 0-.395.109-.73.413-.929.264-.177.616-.23 1.054-.23.434 0 .781.053 1.05.23.304.2.408.534.408.924 0 .396-.109.73-.408.93zm3.94.23c-.369 0-.768-.06-1.067-.308-.356-.295-.465-.75-.465-1.241 0-.438.139-.959.603-1.262.361-.235.807-.282 1.259-.282.33 0 .668.021 1.037.052v.533a13.417 13.417 0 0 0-1.011-.048c-.846 0-1.206.322-1.206 1.007 0 .699.334 1.011.959 1.011.407 0 .863-.082 1.323-.178v.53c-.46.09-.942.186-1.432.186m3.229-1.922c-.507 0-.703.182-.742.516h1.476c-.018-.355-.226-.516-.734-.516zm-.091 1.922c-.36 0-.685-.043-.928-.243-.261-.217-.352-.542-.352-.916 0-.334.109-.707.413-.924.268-.19.611-.23.958-.23.313 0 .682.035.95.222.352.247.382.629.386 1.08h-2.082c.013.334.191.551.807.551.382 0 .807-.056 1.167-.113v.43c-.421.07-.881.143-1.319.143zm4.149-.06v-1.211c0-.4-.203-.542-.568-.542-.269 0-.607.069-.894.138v1.614h-.611v-2.19h.499l.021.138c.386-.1.816-.2 1.172-.2.269 0 .542.04.75.226.174.157.239.373.239.686v1.34h-.608zm2.35.06c-.295 0-.564-.083-.712-.312-.108-.157-.16-.369-.16-.664v-.82h-.443v-.456h.443l.065-.664h.542v.664h.863v.456h-.863v.703c0 .169.013.312.061.416.065.148.208.204.399.204.143 0 .317-.022.438-.043v.438c-.199.04-.43.078-.633.078m1.195-.06v-2.192h.499l.022.139c.403-.113.702-.2 1.084-.2a.61.61 0 0 1 .078.005v.52c-.069-.004-.152-.004-.212-.004-.3 0-.525.035-.86.113v1.618h-.611zm3.908-.92a9.234 9.234 0 0 0-.79-.035c-.447 0-.603.09-.603.295 0 .19.13.295.473.295.286 0 .629-.065.92-.13v-.425zm.13.92l-.018-.131c-.373.091-.807.191-1.189.191-.234 0-.486-.03-.664-.16-.164-.118-.242-.309-.242-.53 0-.248.108-.477.368-.594.23-.109.538-.117.821-.117.23 0 .538.012.794.03v-.04c0-.342-.226-.455-.842-.455-.239 0-.53.013-.807.04v-.443c.308-.026.655-.044.941-.044.382 0 .777.03 1.02.204.251.178.299.426.299.75v1.298h-.481zm1.268-3.116h.612v3.115h-.612v-3.115z" fill="#939598"/></g><defs><clipPath id="clip0_267_659"><path fill="#fff" transform="translate(.765 .472)" d="M0 0H122.235V43.32H0z"/></clipPath></defs></svg>