<svg width="62" height="53" fill="none" xmlns="http://www.w3.org/2000/svg"><path d="M19.79 33.296V20.504h4.16v-3.102H11.808v3.102h4.158v12.792h3.824zm14.873 0v-3.101h-5.791v-3.487h5.12v-2.99h-5.12v-3.214h5.79v-3.102H25.05v15.894h9.614zm7.538 0c1.64 0 3.082-.332 4.327-.996a7.03 7.03 0 0 0 2.884-2.807c.678-1.208 1.017-2.59 1.017-4.144 0-1.57-.339-2.955-1.017-4.155a7.068 7.068 0 0 0-2.873-2.796c-1.238-.664-2.683-.996-4.338-.996h-5.88v15.894h5.88zm-.246-3.35h-1.81v-9.238h1.81c1.446 0 2.571.407 3.376 1.222.805.815 1.208 1.955 1.208 3.42 0 1.463-.403 2.595-1.208 3.395-.805.8-1.93 1.2-3.376 1.2z" fill="#0822DF"/><path fill-rule="evenodd" clip-rule="evenodd" d="M61.25 0v49.28H35.604v2.663l-5.261-5.328 5.26-5.327v2.664H55.99V5.326H36.923L31.658 0H61.25z" fill="#E0AE2A"/><path fill-rule="evenodd" clip-rule="evenodd" d="M6.01 47.28l19.067.001 5.265 5.327H.75V3.33h25.647V.666l5.26 5.327-5.26 5.327V8.657H6.01V47.28z" fill="#0822DF"/></svg>